# Blender 5.1.1
# www.blender.org
mtllib room_test.mtl
o Cube
v -1.000000 -1.000000 1.000000
v -1.000000 1.000000 1.000000
v -1.000000 -1.000000 -1.000000
v -1.000000 1.000000 -1.000000
v 1.000000 -1.000000 1.000000
v 1.000000 1.000000 1.000000
v 1.000000 -1.000000 -1.000000
v 1.000000 1.000000 -1.000000
v -1.312836 -1.000000 1.000000
v -1.312836 1.000000 1.000000
v -1.312836 1.000000 -1.000000
v -1.312836 -1.000000 -1.000000
v -1.000000 -1.000000 -1.312836
v -1.000000 1.000000 -1.312836
v 1.000000 1.000000 -1.312836
v 1.000000 -1.000000 -1.312836
v 1.312836 -1.000000 -1.000000
v 1.312836 1.000000 -1.000000
v 1.312836 1.000000 1.000000
v 1.312836 -1.000000 1.000000
v 1.000000 -1.000000 1.312836
v 1.000000 1.000000 1.312836
v -1.000000 1.000000 1.312836
v -1.000000 -1.000000 1.312836
v -1.000000 -1.312836 -1.000000
v 1.000000 -1.312836 -1.000000
v 1.000000 -1.312836 1.000000
v -1.000000 -1.312836 1.000000
v 1.000000 1.312836 -1.000000
v -1.000000 1.312836 -1.000000
v -1.000000 1.312836 1.000000
v 1.000000 1.312836 1.000000
vn -1.0000 -0.0000 -0.0000
vn -0.0000 -0.0000 1.0000
vn -0.0000 1.0000 -0.0000
vn -0.0000 -0.0000 -1.0000
vn -0.0000 -1.0000 -0.0000
vn 1.0000 -0.0000 -0.0000
vt 0.375000 0.000000
vt 0.625000 0.000000
vt 0.625000 0.250000
vt 0.375000 0.250000
vt 0.625000 0.500000
vt 0.375000 0.500000
vt 0.625000 0.750000
vt 0.375000 0.750000
vt 0.625000 1.000000
vt 0.375000 1.000000
vt 0.125000 0.500000
vt 0.125000 0.750000
vt 0.875000 0.500000
vt 0.875000 0.750000
vt 0.000000 0.000000
s 0
f 9/1/1 10/2/1 11/3/1 12/4/1
f 2/2/2 10/2/2 9/1/2 1/1/2
f 4/3/3 11/3/3 10/2/3 2/2/3
f 3/4/4 12/4/4 11/3/4 4/3/4
f 1/1/5 9/1/5 12/4/5 3/4/5
f 13/4/4 14/3/4 15/5/4 16/6/4
f 4/3/1 14/3/1 13/4/1 3/4/1
f 8/5/3 15/5/3 14/3/3 4/3/3
f 7/6/6 16/6/6 15/5/6 8/5/6
f 3/4/5 13/4/5 16/6/5 7/6/5
f 17/6/6 18/5/6 19/7/6 20/8/6
f 8/5/4 18/5/4 17/6/4 7/6/4
f 6/7/3 19/7/3 18/5/3 8/5/3
f 5/8/2 20/8/2 19/7/2 6/7/2
f 7/6/5 17/6/5 20/8/5 5/8/5
f 21/8/2 22/7/2 23/9/2 24/10/2
f 6/7/6 22/7/6 21/8/6 5/8/6
f 2/9/3 23/9/3 22/7/3 6/7/3
f 1/10/1 24/10/1 23/9/1 2/9/1
f 5/8/5 21/8/5 24/10/5 1/10/5
f 25/11/5 26/6/5 27/8/5 28/12/5
f 7/6/4 26/6/4 25/11/4 3/11/4
f 5/8/6 27/8/6 26/6/6 7/6/6
f 1/12/2 28/12/2 27/8/2 5/8/2
f 3/11/1 25/11/1 28/12/1 1/12/1
f 29/5/3 30/13/3 31/14/3 32/7/3
f 4/13/4 30/13/4 29/5/4 8/5/4
f 2/14/1 31/14/1 30/13/1 4/13/1
f 6/7/2 32/7/2 31/14/2 2/14/2
f 8/5/6 29/5/6 32/7/6 6/7/6
f 4/15/4 8/15/4 7/15/4 3/15/4
f 8/15/6 6/15/6 5/15/6 7/15/6
f 7/15/3 3/15/3 1/15/3 5/15/3
f 1/1/1 2/2/1 4/3/1 3/4/1
f 2/2/2 1/1/2 5/8/2 6/7/2
f 4/3/3 2/2/3 6/7/3 8/5/3
