# Blender 5.1.1
# www.blender.org
mtllib scp012.mtl
o scp012
v -3.616904 0.002978 -0.169468
v 3.886370 0.002978 -0.169468
v -3.616904 9.061646 -0.169795
v 3.886370 9.061646 -0.169795
v -3.616904 8.822258 -0.538688
v 3.886370 8.822258 -0.538688
v -3.616904 9.138674 -0.483300
v 3.886370 9.138674 -0.483300
v -3.616904 6.041418 0.070840
v -3.616904 3.022147 0.070840
v 3.886370 3.022147 0.070840
v 3.886370 6.041418 0.070840
v -3.616904 8.685317 -0.352318
v 3.886370 8.685317 -0.352318
v 3.886370 9.171247 -0.326224
v -3.616904 9.171247 -0.326224
v -3.616904 8.842957 -0.217470
v 3.886370 8.842957 -0.217470
v -3.616904 9.043201 -0.275310
v 3.886370 9.043201 -0.275310
v -3.616904 0.003180 -0.172000
v 3.886370 0.003180 -0.172000
v -3.616904 9.060385 -0.171999
v 3.886370 9.060385 -0.171999
v -3.616904 8.823204 -0.536331
v 3.886370 8.823204 -0.536331
v -3.616904 9.136906 -0.481477
v 3.886370 9.136906 -0.481477
v -3.616904 6.041317 0.068302
v -3.616904 3.022248 0.068302
v 3.886370 3.022248 0.068302
v 3.886370 6.041317 0.068302
v -3.616904 8.687840 -0.352609
v 3.886370 8.687840 -0.352609
v 3.886370 9.168759 -0.326738
v -3.616904 9.168759 -0.326738
v -3.616904 8.843490 -0.219953
v 3.886370 8.843490 -0.219953
v -3.616904 9.042493 -0.277749
v 3.886370 9.042493 -0.277749
vn -0.0000 -0.0397 0.9992
vn -0.0000 0.0397 0.9992
vn -0.0000 0.9794 0.2019
vn -0.0000 0.4965 0.8680
vn -0.0000 -0.3727 -0.9280
vn -0.0000 0.6960 -0.7180
vn -0.0000 -0.0793 0.9968
vn -0.0000 -0.9934 0.1145
vn -0.0000 -0.2116 0.9774
vn -0.0000 0.2775 0.9607
vn -0.0000 0.0397 -0.9992
vn -0.0000 -0.0397 -0.9992
vn -0.0000 -0.9793 -0.2026
vn -0.0000 -0.4966 -0.8680
vn -0.0000 0.3722 0.9282
vn -0.0000 -0.6964 0.7176
vn -0.0000 -0.6965 0.7176
vn -0.0000 0.0793 -0.9968
vn -0.0000 0.9934 -0.1147
vn -0.0000 0.2100 -0.9777
vn -0.0000 -0.2789 -0.9603
vn 1.0000 -0.0000 -0.0000
vn -1.0000 -0.0000 -0.0000
vn 1.0000 -0.0001 -0.0000
vn 1.0000 0.0001 -0.0000
vn -1.0000 -0.0001 -0.0000
vn -1.0000 0.0001 -0.0000
vn -0.0000 -0.9969 -0.0793
vn -0.0000 0.9604 -0.2787
vn -0.0000 0.9603 -0.2791
vt 1.000000 0.333333
vt 0.000000 0.666667
vt 0.000000 0.333333
vt 0.999500 0.029759
vt 0.000500 0.000500
vt 0.999500 0.000500
vt -0.006519 0.114321
vt 0.992481 0.055005
vt 0.992481 0.114321
vt 1.000000 0.000000
vt 0.000000 0.000000
vt 0.000000 1.000000
vt 1.000000 0.666667
vt 1.000000 1.000000
vt 0.992481 0.019865
vt -0.006519 0.054603
vt -0.006519 0.019865
vt 0.000500 0.059017
vt 0.999500 0.059017
vt 0.992481 0.114722
vt -0.006519 0.144153
vt -0.006519 0.114722
vt 0.992481 0.144153
vt -0.006519 0.181781
vt 0.000500 0.029759
vt -0.006519 0.055005
vt 0.992481 0.054604
vt 0.992481 0.181781
s 1
usemtl 13_-_Default
f 11/1/1 9/2/2 10/3/1
f 15/4/3 3/5/4 4/6/4
f 5/7/5 8/8/6 6/9/5
f 2/10/7 10/3/1 1/11/7
f 3/12/4 12/13/2 4/14/4
f 6/15/5 13/16/8 5/17/5
f 7/18/6 15/4/3 8/19/6
f 14/20/8 17/21/9 13/22/8
f 18/23/9 19/24/10 17/21/9
f 31/1/11 29/2/12 32/13/12
f 35/4/13 23/5/14 36/25/13
f 25/7/15 28/8/16 27/26/17
f 22/10/18 30/3/11 31/1/11
f 23/12/14 32/13/12 29/2/12
f 26/15/15 33/16/19 34/27/19
f 27/18/17 35/4/13 36/25/13
f 34/20/19 37/21/20 38/23/20
f 38/23/20 39/24/21 40/28/21
f 11/1/22 32/13/22 12/13/22
f 9/2/23 30/3/23 10/3/23
f 15/4/24 24/6/25 35/4/24
f 16/25/26 23/5/27 3/5/27
f 5/7/23 27/26/23 7/26/23
f 6/9/22 28/8/22 26/9/22
f 1/11/28 22/10/28 2/10/28
f 2/10/22 31/1/22 11/1/22
f 1/11/23 30/3/23 21/11/23
f 9/2/23 23/12/27 29/2/23
f 12/13/22 24/14/25 4/14/25
f 6/15/22 34/27/22 14/27/22
f 5/17/23 33/16/23 25/17/23
f 16/25/26 27/18/23 36/25/26
f 15/4/24 28/19/22 8/19/22
f 18/23/22 34/20/22 38/23/22
f 17/21/23 33/22/23 13/22/23
f 20/28/22 38/23/22 40/28/22
f 20/28/29 39/24/30 19/24/30
f 19/24/23 37/21/23 17/21/23
f 11/1/1 12/13/2 9/2/2
f 15/4/3 16/25/3 3/5/4
f 5/7/5 7/26/6 8/8/6
f 2/10/7 11/1/1 10/3/1
f 3/12/4 9/2/2 12/13/2
f 6/15/5 14/27/8 13/16/8
f 7/18/6 16/25/3 15/4/3
f 14/20/8 18/23/9 17/21/9
f 18/23/9 20/28/10 19/24/10
f 31/1/11 30/3/11 29/2/12
f 35/4/13 24/6/14 23/5/14
f 25/7/15 26/9/15 28/8/16
f 22/10/18 21/11/18 30/3/11
f 23/12/14 24/14/14 32/13/12
f 26/15/15 25/17/15 33/16/19
f 27/18/17 28/19/16 35/4/13
f 34/20/19 33/22/19 37/21/20
f 38/23/20 37/21/20 39/24/21
f 11/1/22 31/1/22 32/13/22
f 9/2/23 29/2/23 30/3/23
f 15/4/24 4/6/25 24/6/25
f 16/25/26 36/25/26 23/5/27
f 5/7/23 25/7/23 27/26/23
f 6/9/22 8/8/22 28/8/22
f 1/11/28 21/11/28 22/10/28
f 2/10/22 22/10/22 31/1/22
f 1/11/23 10/3/23 30/3/23
f 9/2/23 3/12/27 23/12/27
f 12/13/22 32/13/22 24/14/25
f 6/15/22 26/15/22 34/27/22
f 5/17/23 13/16/23 33/16/23
f 16/25/26 7/18/23 27/18/23
f 15/4/24 35/4/24 28/19/22
f 18/23/22 14/20/22 34/20/22
f 17/21/23 37/21/23 33/22/23
f 20/28/22 18/23/22 38/23/22
f 20/28/29 40/28/29 39/24/30
f 19/24/23 39/24/23 37/21/23
